<svg width="25" height="30" viewBox="0 0 25 30" fill="none" xmlns="http://www.w3.org/2000/svg">
<path d="M23.6959 10.2326C23.5624 10.3162 20.3848 12.0797 20.3848 15.9897C20.5346 20.4489 24.3947 22.0127 24.4609 22.0127C24.3947 22.0963 23.8782 24.143 22.348 26.2885C21.1336 28.1367 19.7858 30 17.739 30C15.7922 30 15.0933 28.7683 12.8468 28.7683C10.4344 28.7683 9.75178 30 7.90473 30C5.85799 30 4.4103 28.0368 3.12973 26.206C1.46608 23.8099 0.0520281 20.0496 0.00210773 16.439C-0.0315343 14.5258 0.335272 12.6451 1.2664 11.0476C2.58061 8.81747 4.92686 7.30357 7.48908 7.25365C9.45226 7.18746 11.1995 8.60151 12.3976 8.60151C13.5457 8.60151 15.6923 7.25365 18.121 7.25365C19.1694 7.25474 21.9649 7.57054 23.6959 10.2326ZM12.2315 6.87165C11.8821 5.12444 12.8468 3.37722 13.7454 2.2627C14.8936 0.914846 16.707 0 18.2708 0C18.3706 1.74721 17.738 3.46079 16.6072 4.7088C15.5925 6.05665 13.8453 7.07134 12.2315 6.87165Z" fill="black"/>
</svg>
