<svg width="20" height="16" viewBox="0 0 20 16" fill="none" xmlns="http://www.w3.org/2000/svg">
<path d="M19.9851 2.3089C19.9851 2.28605 20.0008 2.2638 19.9998 2.24121L13.8965 8.12208L19.9925 13.8151C19.9961 13.7744 19.9851 13.7334 19.9851 13.6919V2.3089Z" fill="#838383"/>
<path d="M12.9653 9.02686L10.4737 11.424C10.3477 11.5453 10.1848 11.6062 10.0219 11.6062C9.86236 11.6062 9.70283 11.548 9.57762 11.4313L7.09284 9.11583L0.957031 15.0301C1.10623 15.0837 1.26637 15.1253 1.43407 15.1253H18.6098C18.8588 15.1253 19.0924 15.0495 19.2955 14.9363L12.9653 9.02686Z" fill="#838383"/>
<path d="M10.014 10.0571L19.3285 1.0845C19.1176 0.959112 18.8722 0.875 18.609 0.875H1.4333C1.09068 0.875 0.776742 1.00803 0.532227 1.21093L10.014 10.0571Z" fill="#838383"/>
<path d="M0 2.52734V13.6916C0 13.8198 0.0294565 13.9433 0.0614328 14.0614L6.12113 8.22609L0 2.52734Z" fill="#838383"/>
</svg>
