<svg width="17" height="11" viewBox="0 0 17 11" fill="none" xmlns="http://www.w3.org/2000/svg">
<path d="M8.5 0.433105C5.25197 0.433105 2.30648 2.21013 0.133016 5.0965C-0.0443388 5.33297 -0.0443388 5.66334 0.133016 5.89981C2.30648 8.78966 5.25197 10.5667 8.5 10.5667C11.748 10.5667 14.6935 8.78966 16.867 5.90329C17.0443 5.66682 17.0443 5.33645 16.867 5.09998C14.6935 2.21013 11.748 0.433105 8.5 0.433105ZM8.733 9.06786C6.57691 9.20349 4.79641 7.42646 4.93203 5.2669C5.04332 3.48639 6.4865 2.04321 8.267 1.93193C10.4231 1.7963 12.2036 3.57333 12.068 5.73289C11.9532 7.50992 10.51 8.9531 8.733 9.06786ZM8.62519 7.4195C7.46369 7.49253 6.50389 6.53621 6.58039 5.3747C6.63951 4.4149 7.41848 3.63941 8.37829 3.57681C9.53979 3.50378 10.4996 4.46011 10.4231 5.62161C10.3605 6.58489 9.58152 7.36038 8.62519 7.4195Z" fill="#838383"/>
</svg>
