<svg width="30" height="30" viewBox="0 0 30 30" fill="none" xmlns="http://www.w3.org/2000/svg">
<path d="M15 0C6.7155 0 0 6.7155 0 15C0 23.2845 6.7155 30 15 30C23.2845 30 30 23.2845 30 15C30 6.7155 23.2845 0 15 0Z" fill="url(#paint0_linear_45_119)"/>
<path d="M17.0302 18.9759H20.9122L21.5219 15.0324H17.0302V12.8769C17.0302 11.2389 17.5657 9.78618 19.0979 9.78618H21.5602V6.34518C21.1274 6.28668 20.2124 6.15918 18.4837 6.15918C14.8732 6.15918 12.7567 8.06568 12.7567 12.4097V15.0332H9.04492V18.9767H12.7559V29.8157C13.4909 29.9252 14.2357 30.0002 14.9999 30.0002C15.6907 30.0002 16.3649 29.9372 17.0302 29.8472V18.9759Z" fill="white"/>
<defs>
<linearGradient id="paint0_linear_45_119" x1="4.49475" y1="4.49475" x2="27.4612" y2="27.4612" gradientUnits="userSpaceOnUse">
<stop stop-color="#2AA4F4"/>
<stop offset="1" stop-color="#007AD9"/>
</linearGradient>
</defs>
</svg>
