<svg width="87" height="58" viewBox="0 0 87 58" fill="none" xmlns="http://www.w3.org/2000/svg">
<path d="M25.0056 44.0139C21.6952 45.602 18.3849 47.1789 15.0633 48.7447C14.5488 48.9907 13.9673 49.1473 13.4528 48.6999C12.9272 48.2414 13.0837 47.671 13.2738 46.8322C15.231 42.1798 17.2329 37.2701 19.369 32.4052C20.1071 30.7276 21.2032 30.8842 21.9636 32.4611C23.3504 35.3353 24.6366 38.2431 25.9563 41.1509C26.5378 42.4035 26.2694 43.41 25.0056 44.0139ZM0.803971 5.41871C1.1954 4.21087 2.6045 4.51283 3.61104 4.44573C24.7148 3.26025 45.8075 2.09714 66.9112 0.934023C72.3689 0.632061 77.8266 0.341282 83.2843 0.0728718C84.2349 0.0281367 85.398 -0.273823 85.9348 0.799819C86.4381 1.78399 85.4987 2.45502 84.9619 3.12604C71.0381 20.5727 57.1142 38.0194 43.1792 55.4437C41.2221 57.8818 40.5176 57.77 39.1867 54.8398C35.2053 46.0382 31.3021 37.2142 27.2536 28.4461C26.3141 26.3995 26.9181 25.5607 28.8193 24.7778C34.9368 22.2727 41.0096 19.6445 47.0936 17.061C47.7646 16.7702 48.4468 16.4795 49.0843 16.1216C49.6994 15.7861 50.0796 15.2493 49.8895 14.4999C49.6994 13.7618 49.1067 13.4375 48.4133 13.471C47.5186 13.5158 46.6239 13.65 45.7516 13.8177C37.6545 15.3835 29.5686 16.9716 21.4828 18.5373C20.6887 18.6939 19.8835 18.7721 19.0223 18.8952C18.2394 18.4143 17.4454 18.0005 16.7185 17.486C12.0213 14.2315 7.31289 10.977 2.64925 7.67784C1.82165 7.11865 0.390172 6.71603 0.803971 5.41871Z" fill="white"/>
</svg>
