<svg width="392" height="60" viewBox="0 0 392 60" fill="none" xmlns="http://www.w3.org/2000/svg">
<path d="M19.8876 22.0513C12.8298 20.5802 8.5373 19.3745 8.5373 14.9051C8.5373 11.0627 12.1787 8.57884 17.8056 8.57884C23.5772 8.57884 27.3633 10.6206 29.3809 14.8327C29.598 15.2829 30.0964 15.524 30.5867 15.4035L34.9194 14.3344C35.2168 14.262 35.466 14.0611 35.6027 13.7958C35.7474 13.5225 35.7635 13.209 35.6509 12.9196C32.958 5.95028 26.5996 2.10791 17.7413 2.10791C8.49711 2.10791 1.78503 7.49366 1.78503 14.9051C1.78503 24.712 10.8283 26.6733 18.095 28.2489C25.1206 29.7762 29.389 31.0061 29.389 35.3468C29.389 39.5831 25.426 42.2116 19.0516 42.2116C13.0147 42.2116 8.43281 39.6795 6.47947 35.2745C6.27047 34.8002 5.74797 34.551 5.24959 34.6796L0.796297 35.813C0.506914 35.8854 0.257723 36.0783 0.121069 36.3436C-0.0155838 36.6088 -0.0396989 36.9223 0.0648007 37.2037C2.68533 44.3579 9.80738 48.6263 19.1078 48.6263C29.3247 48.6263 36.1975 43.3129 36.1975 35.4111C36.1975 25.4435 27.1543 23.5625 19.8876 22.0513Z" fill="white"/>
<path d="M57.8763 11.1592C47.2897 11.1592 39.9023 18.8761 39.9023 29.9209C39.9023 41.1425 47.2495 48.6826 58.1737 48.6826C65.8504 48.6826 71.3406 45.435 74.4997 39.0364C74.6444 38.7471 74.6444 38.4014 74.5078 38.104C74.3711 37.8066 74.0978 37.5976 73.7843 37.5252L69.5079 36.5687C69.0497 36.4642 68.5835 36.6812 68.3503 37.0912C66.3327 40.7406 63.1254 42.4447 58.238 42.4447C51.5098 42.4447 47.2575 38.522 46.7109 31.8742H74.1541C74.7087 31.8742 75.175 31.4401 75.2071 30.8774C75.593 24.9049 74.0174 19.8568 70.6654 16.2636C67.5385 12.9276 63.1173 11.1592 57.8763 11.1592ZM47.0164 25.8213C48.1417 20.4114 52.1449 17.2202 57.9406 17.2202C63.8488 17.2202 67.7314 20.4114 68.5191 25.8213H47.0164Z" fill="white"/>
<path d="M98.5437 11.2236C94.0101 11.2236 90.3285 12.8876 87.9652 15.91V12.8795C87.9652 12.2927 87.4909 11.8185 86.9041 11.8185H82.274C81.6872 11.8185 81.2129 12.2927 81.2129 12.8795V46.9625C81.2129 47.5493 81.6872 48.0236 82.274 48.0236H86.9041C87.4909 48.0236 87.9652 47.5493 87.9652 46.9625V30.0416C87.9652 21.5369 90.9715 17.574 97.4184 17.574C104.034 17.574 106.984 21.1029 106.984 29.0288V46.9625C106.984 47.5493 107.458 48.0236 108.045 48.0236H112.675C113.262 48.0236 113.736 47.5493 113.736 46.9625V28.7313C113.728 17.1158 108.624 11.2236 98.5437 11.2236Z" fill="white"/>
<path d="M153.575 0.733398H148.889C148.302 0.733398 147.828 1.20767 147.828 1.79447V16.6254C145.159 13.1447 140.931 11.1592 135.883 11.1592C127.41 11.1592 118.857 16.963 118.857 29.9209C118.857 39.3179 124.139 48.7952 135.947 48.7952C140.955 48.7952 145.159 46.8257 147.828 43.3692V46.8981C147.828 47.4849 148.302 47.9592 148.889 47.9592H153.575C154.162 47.9592 154.636 47.4849 154.636 46.8981V1.79447C154.636 1.20767 154.162 0.733398 153.575 0.733398ZM147.948 29.9209C147.948 37.6861 143.688 42.5011 136.839 42.5011C129.91 42.5011 125.61 37.678 125.61 29.9209C125.61 22.2362 129.87 17.4533 136.719 17.4533C143.64 17.4614 147.948 22.2362 147.948 29.9209Z" fill="white"/>
<path d="M225.406 2.75928H219.65C219.2 2.75928 218.798 3.04062 218.653 3.46666L206.234 38.6589L193.815 3.46666C193.662 3.04062 193.268 2.75928 192.818 2.75928H187.062C186.556 2.75928 186.122 3.12101 186.025 3.61939L177.657 46.7616C177.593 47.0751 177.682 47.3967 177.882 47.6378C178.083 47.879 178.381 48.0237 178.702 48.0237H183.574C184.08 48.0237 184.514 47.6619 184.611 47.1636L190.993 14.4873L202.697 47.3163C202.85 47.7423 203.244 48.0237 203.694 48.0237H208.798C209.248 48.0237 209.642 47.7423 209.795 47.3163L221.499 14.4873L227.882 47.1636C227.978 47.6619 228.412 48.0237 228.918 48.0237H233.79C234.103 48.0237 234.409 47.879 234.61 47.6378C234.811 47.3967 234.891 47.0671 234.835 46.7616L226.467 3.61939C226.346 3.12101 225.912 2.75928 225.406 2.75928Z" fill="white"/>
<path d="M255.688 11.1592C246.797 11.1592 237.826 16.9629 237.826 29.9209C237.826 39.3178 243.389 48.7951 255.8 48.7951C264.691 48.7951 273.661 42.9592 273.661 29.9209C273.661 16.9629 264.634 11.1592 255.688 11.1592ZM266.917 29.9209C266.917 37.686 262.657 42.501 255.808 42.501C248.879 42.501 244.578 37.678 244.578 29.9209C244.578 22.2361 248.839 17.4533 255.688 17.4533C262.609 17.4613 266.917 22.2361 266.917 29.9209Z" fill="white"/>
<path d="M296.94 11.2236C292.407 11.2236 288.725 12.8876 286.362 15.91V12.8795C286.362 12.2927 285.887 11.8185 285.301 11.8185H280.67C280.084 11.8185 279.609 12.2927 279.609 12.8795V46.9625C279.609 47.5493 280.084 48.0236 280.67 48.0236H285.301C285.887 48.0236 286.362 47.5493 286.362 46.9625V30.0416C286.362 21.5369 289.368 17.574 295.815 17.574C302.43 17.574 305.381 21.1029 305.381 29.0288V46.9625C305.381 47.5493 305.855 48.0236 306.442 48.0236H311.072C311.659 48.0236 312.133 47.5493 312.133 46.9625V28.7313C312.133 17.1158 307.02 11.2236 296.94 11.2236Z" fill="white"/>
<path d="M335.236 11.1592C324.649 11.1592 317.262 18.8761 317.262 29.9209C317.262 41.1425 324.609 48.6826 335.533 48.6826C343.21 48.6826 348.7 45.435 351.859 39.0364C352.004 38.7471 352.004 38.4014 351.867 38.104C351.73 37.8066 351.457 37.5976 351.144 37.5252L346.867 36.5687C346.401 36.4642 345.935 36.6812 345.71 37.0912C343.692 40.7406 340.485 42.4447 335.597 42.4447C328.869 42.4447 324.617 38.522 324.07 31.8742H351.513C352.068 31.8742 352.534 31.4401 352.566 30.8774C352.952 24.9049 351.377 19.8568 348.025 16.2636C344.89 12.9276 340.469 11.1592 335.236 11.1592ZM324.368 25.8213C325.493 20.4114 329.496 17.2202 335.292 17.2202C341.2 17.2202 345.083 20.4114 345.87 25.8213H324.368Z" fill="white"/>
<path d="M391.094 12.3007C390.901 11.9952 390.564 11.8184 390.202 11.8184H385.041C384.623 11.8184 384.238 12.0676 384.069 12.4534L372.509 38.9481L360.95 12.4534C360.781 12.0676 360.404 11.8184 359.978 11.8184H354.817C354.455 11.8184 354.126 12.0032 353.925 12.3007C353.732 12.6061 353.7 12.9839 353.852 13.3135L368.852 46.6649L363.94 57.549C363.796 57.8786 363.82 58.2564 364.013 58.5618C364.206 58.8673 364.543 59.0522 364.905 59.0522H369.953C370.371 59.0522 370.749 58.811 370.918 58.4252L391.159 13.3215C391.319 12.992 391.287 12.6061 391.094 12.3007Z" fill="white"/>
</svg>
