<svg width="112" height="75" viewBox="0 0 112 75" fill="none" xmlns="http://www.w3.org/2000/svg">
<path d="M31.5859 57.0827C27.2859 59.1527 22.9759 61.1927 18.6559 63.2227C17.9759 63.5427 17.2259 63.7527 16.5659 63.1627C15.8859 62.5727 16.0859 61.8327 16.3359 60.7427C18.8759 54.7127 21.4959 48.3427 24.2759 42.0427C25.2359 39.8627 26.6659 40.0827 27.6459 42.1127C29.4459 45.8327 31.1259 49.6127 32.8459 53.3727C33.5859 54.9927 33.2359 56.2927 31.5859 57.0827ZM0.0959304 7.04269C0.60593 5.47269 2.43593 5.86269 3.74593 5.79269C31.2059 4.25269 58.6559 2.74269 86.1159 1.24269C93.2159 0.852686 100.326 0.472687 107.426 0.122687C108.666 0.0626875 110.176 -0.31731 110.876 1.06269C111.526 2.34269 110.306 3.21269 109.606 4.08269C91.4959 26.7027 73.3659 49.3127 55.2259 71.9127C52.6859 75.0827 51.7659 74.9327 50.0359 71.1327C44.8559 59.7327 39.7759 48.2727 34.5059 36.9127C33.2759 34.2627 34.0759 33.1627 36.5459 32.1627C44.5059 28.9227 52.4059 25.5127 60.3259 22.1527C61.2059 21.7827 62.0859 21.3927 62.9159 20.9427C63.7159 20.5027 64.2159 19.8127 63.9659 18.8427C63.7159 17.8827 62.9559 17.4627 62.0359 17.5127C60.8759 17.5827 59.7159 17.7527 58.5659 17.9727C48.0359 20.0027 37.5059 22.0527 26.9759 24.0827C25.9459 24.2827 24.8859 24.3927 23.7759 24.5527C22.7559 23.9327 21.7259 23.3827 20.7759 22.7327C14.6559 18.5127 8.53593 14.2927 2.45593 10.0127C1.42593 9.24269 -0.44407 8.72269 0.0959304 7.04269Z" fill="url(#paint0_linear_45_109)"/>
<defs>
<linearGradient id="paint0_linear_45_109" x1="9.08208" y1="52.5677" x2="101.616" y2="-12.2212" gradientUnits="userSpaceOnUse">
<stop offset="0.2" stop-color="#AB11FF"/>
<stop offset="0.5599" stop-color="#4C6AFF"/>
<stop offset="0.95" stop-color="#1BE8E2"/>
</linearGradient>
</defs>
</svg>
